Mailpile-Bold.ufo
<glyph name="exclam" format="1">
  <advance width="534"/>
  <unicode hex="0021"/>
  <outline>
    <contour>
      <point x="140" y="1494" type="line"/>
      <point x="167" y="409" type="line"/>
      <point x="376" y="409" type="line"/>
      <point x="412" y="1494" type="line"/>
    </contour>
    <contour>
      <point x="182" y="296"/>
      <point x="109" y="224"/>
      <point x="109" y="138" type="curve"/>
      <point x="109" y="55"/>
      <point x="182" y="-17"/>
      <point x="266" y="-17" type="curve" smooth="yes"/>
      <point x="352" y="-17"/>
      <point x="422" y="54"/>
      <point x="422" y="138" type="curve" smooth="yes"/>
      <point x="422" y="223"/>
      <point x="351" y="296"/>
      <point x="266" y="296" type="curve" smooth="yes"/>
    </contour>
  </outline>
</glyph>
<glyph name="percent" format="1">
  <advance width="1767"/>
  <unicode hex="0025"/>
  <outline>
    <contour>
      <point x="190" y="88" type="line"/>
      <point x="349" y="-78" type="line"/>
      <point x="1714" y="1479" type="line"/>
      <point x="1533" y="1622" type="line"/>
    </contour>
    <contour>
      <point x="561" y="1296"/>
      <point x="633" y="1224"/>
      <point x="633" y="1146" type="curve" smooth="yes"/>
      <point x="633" y="1069"/>
      <point x="562" y="997"/>
      <point x="484" y="997" type="curve" smooth="yes"/>
      <point x="407" y="997"/>
      <point x="334" y="1070"/>
      <point x="334" y="1146" type="curve" smooth="yes"/>
      <point x="334" y="1224"/>
      <point x="408" y="1296"/>
      <point x="484" y="1296" type="curve" smooth="yes"/>
    </contour>
    <contour>
      <point x="281" y="1520"/>
      <point x="112" y="1337"/>
      <point x="112" y="1147" type="curve"/>
      <point x="112" y="957"/>
      <point x="277" y="780"/>
      <point x="472" y="774" type="curve"/>
      <point x="686" y="772"/>
      <point x="861" y="943"/>
      <point x="861" y="1146" type="curve" smooth="yes"/>
      <point x="861" y="1343"/>
      <point x="679" y="1520"/>
      <point x="486" y="1520" type="curve" smooth="yes"/>
    </contour>
    <contour>
      <point x="1415" y="504"/>
      <point x="1487" y="432"/>
      <point x="1487" y="355" type="curve" smooth="yes"/>
      <point x="1487" y="277"/>
      <point x="1415" y="206"/>
      <point x="1337" y="206" type="curve" smooth="yes"/>
      <point x="1260" y="206"/>
      <point x="1187" y="278"/>
      <point x="1187" y="355" type="curve" smooth="yes"/>
      <point x="1187" y="431"/>
      <point x="1260" y="504"/>
      <point x="1337" y="504" type="curve" smooth="yes"/>
    </contour>
    <contour>
      <point x="1100" y="723"/>
      <point x="962" y="535"/>
      <point x="962" y="354" type="curve" smooth="yes"/>
      <point x="962" y="159"/>
      <point x="1141" y="-19"/>
      <point x="1336" y="-19" type="curve" smooth="yes"/>
      <point x="1541" y="-19"/>
      <point x="1712" y="161"/>
      <point x="1712" y="354" type="curve" smooth="yes"/>
      <point x="1712" y="557"/>
      <point x="1533" y="723"/>
      <point x="1337" y="723" type="curve" smooth="yes"/>
    </contour>
  </outline>
</glyph>
<glyph name="quotesingle" format="1">
  <advance width="491"/>
  <unicode hex="0027"/>
  <outline>
    <contour>
      <point x="221" y="1478" type="line"/>
      <point x="38" y="1003" type="line"/>
      <point x="265" y="1003" type="line"/>
      <point x="450" y="1478" type="line"/>
    </contour>
  </outline>
</glyph>
<glyph name="comma" format="1">
  <advance width="539"/>
  <unicode hex="002C"/>
  <outline>
    <contour>
      <point x="201" y="304"/>
      <point x="122" y="261"/>
      <point x="122" y="145" type="curve" smooth="yes"/>
      <point x="122" y="69"/>
      <point x="163" y="38"/>
      <point x="163" y="-9" type="curve" smooth="yes"/>
      <point x="163" y="-47"/>
      <point x="138" y="-66"/>
      <point x="50" y="-145" type="curve"/>
      <point x="171" y="-272" type="line"/>
      <point x="273" y="-195"/>
      <point x="312" y="-161"/>
      <point x="365" y="-84" type="curve" smooth="yes"/>
      <point x="423" y="1"/>
      <point x="439" y="67"/>
      <point x="439" y="125" type="curve" smooth="yes"/>
      <point x="439" y="278"/>
      <point x="341" y="304"/>
      <point x="282" y="304" type="curve" smooth="yes"/>
    </contour>
  </outline>
</glyph>
<glyph name="hyphen" format="1">
  <advance width="919"/>
  <unicode hex="002D"/>
  <outline>
    <contour>
      <point x="78" y="754" type="line"/>
      <point x="78" y="544" type="line"/>
      <point x="840" y="544" type="line"/>
      <point x="840" y="754" type="line"/>
    </contour>
  </outline>
</glyph>
<glyph name="seven" format="1">
  <advance width="1016"/>
  <unicode hex="0037"/>
  <outline>
    <contour>
      <point x="53" y="1494" type="line"/>
      <point x="53" y="1143" type="line"/>
      <point x="283" y="1143" type="line"/>
      <point x="283" y="1263" type="line"/>
      <point x="719" y="1263" type="line"/>
      <point x="157" y="-1" type="line"/>
      <point x="414" y="-1" type="line"/>
      <point x="997" y="1315" type="line"/>
      <point x="997" y="1494" type="line"/>
    </contour>
  </outline>
</glyph>
<glyph name="semicolon" format="1">
  <advance width="499"/>
  <unicode hex="003B"/>
  <outline>
    <contour>
      <point x="156" y="303"/>
      <point x="96" y="229"/>
      <point x="96" y="148" type="curve"/>
      <point x="96" y="80"/>
      <point x="121" y="30"/>
      <point x="121" y="10" type="curve"/>
      <point x="121" y="-6"/>
      <point x="122" y="-8"/>
      <point x="113" y="-30" type="curve"/>
      <point x="94" y="-77"/>
      <point x="68" y="-96"/>
      <point x="20" y="-152" type="curve"/>
      <point x="132" y="-282" type="line"/>
      <point x="181" y="-243"/>
      <point x="240" y="-192"/>
      <point x="286" y="-138" type="curve"/>
      <point x="347" y="-65"/>
      <point x="399" y="62"/>
      <point x="399" y="142" type="curve"/>
      <point x="399" y="241"/>
      <point x="337" y="303"/>
      <point x="253" y="303" type="curve"/>
    </contour>
    <contour>
      <point x="165" y="1138"/>
      <point x="90" y="1064"/>
      <point x="90" y="976" type="curve" smooth="yes"/>
      <point x="90" y="890"/>
      <point x="163" y="817"/>
      <point x="249" y="817" type="curve" smooth="yes"/>
      <point x="337" y="817"/>
      <point x="408" y="892"/>
      <point x="411" y="976" type="curve" smooth="yes"/>
      <point x="415" y="1084"/>
      <point x="332" y="1138"/>
      <point x="249" y="1138" type="curve" smooth="yes"/>
    </contour>
  </outline>
</glyph>
<glyph name="at" format="1">
  <advance width="2007"/>
  <unicode hex="0040"/>
  <outline>
    <contour>
      <point x="476" y="1472"/>
      <point x="74" y="1061"/>
      <point x="74" y="490" type="curve" smooth="yes"/>
      <point x="74" y="-4"/>
      <point x="422" y="-390"/>
      <point x="957" y="-390" type="curve" smooth="yes"/>
      <point x="1189" y="-390"/>
      <point x="1323" y="-347"/>
      <point x="1497" y="-217" type="curve" smooth="yes"/>
      <point x="1364" y="-40" type="line" smooth="yes"/>
      <point x="1229" y="-146"/>
      <point x="1143" y="-173"/>
      <point x="963" y="-173" type="curve" smooth="yes"/>
      <point x="586" y="-173"/>
      <point x="298" y="97"/>
      <point x="298" y="487" type="curve" smooth="yes"/>
      <point x="298" y="906"/>
      <point x="597" y="1258"/>
      <point x="1033" y="1258" type="curve" smooth="yes"/>
      <point x="1445" y="1258"/>
      <point x="1703" y="966"/>
      <point x="1703" y="588" type="curve" smooth="yes"/>
      <point x="1703" y="479"/>
      <point x="1678" y="390"/>
      <point x="1627" y="320" type="curve" smooth="yes"/>
      <point x="1589" y="268"/>
      <point x="1526" y="218"/>
      <point x="1471" y="216" type="curve" smooth="yes"/>
      <point x="1454" y="216"/>
      <point x="1434" y="220"/>
      <point x="1423" y="228" type="curve" smooth="yes"/>
      <point x="1415" y="233"/>
      <point x="1416" y="241"/>
      <point x="1416" y="248" type="curve" smooth="yes"/>
      <point x="1416" y="707" type="line" smooth="yes"/>
      <point x="1416" y="848"/>
      <point x="1378" y="941"/>
      <point x="1316" y="993" type="curve" smooth="yes"/>
      <point x="1255" y="1045"/>
      <point x="1157" y="1075"/>
      <point x="1021" y="1075" type="curve" smooth="yes"/>
      <point x="861" y="1075"/>
      <point x="756" y="1050"/>
      <point x="701" y="1008" type="curve" smooth="yes"/>
      <point x="633" y="957"/>
      <point x="607" y="905"/>
      <point x="607" y="856" type="curve" smooth="yes"/>
      <point x="607" y="775" type="line"/>
      <point x="829" y="775" type="line"/>
      <point x="829" y="821" type="line" smooth="yes"/>
      <point x="829" y="835"/>
      <point x="832" y="847"/>
      <point x="845" y="854" type="curve" smooth="yes"/>
      <point x="869" y="869"/>
      <point x="930" y="872"/>
      <point x="1021" y="872" type="curve" smooth="yes"/>
      <point x="1099" y="872"/>
      <point x="1167" y="868"/>
      <point x="1178" y="824" type="curve" smooth="yes"/>
      <point x="1188" y="786"/>
      <point x="1194" y="706"/>
      <point x="1197" y="656" type="curve"/>
      <point x="1126" y="658" type="line" smooth="yes"/>
      <point x="806" y="666"/>
      <point x="536" y="640"/>
      <point x="536" y="328" type="curve" smooth="yes"/>
      <point x="536" y="93"/>
      <point x="693" y="-14"/>
      <point x="896" y="-14" type="curve" smooth="yes"/>
      <point x="984" y="-14"/>
      <point x="1151" y="8"/>
      <point x="1240" y="183" type="curve"/>
      <point x="1267" y="39"/>
      <point x="1311" y="14"/>
      <point x="1417" y="12" type="curve" smooth="yes"/>
      <point x="1535" y="10"/>
      <point x="1721" y="73"/>
      <point x="1814" y="211" type="curve" smooth="yes"/>
      <point x="1888" y="320"/>
      <point x="1926" y="446"/>
      <point x="1926" y="589" type="curve" smooth="yes"/>
      <point x="1926" y="1093"/>
      <point x="1595" y="1472"/>
      <point x="1036" y="1472" type="curve" smooth="yes"/>
    </contour>
    <contour>
      <point x="1199" y="423"/>
      <point x="1198" y="365"/>
      <point x="1148" y="288" type="curve" smooth="yes"/>
      <point x="1106" y="222"/>
      <point x="1023" y="200"/>
      <point x="947" y="199" type="curve" smooth="yes"/>
      <point x="804" y="199"/>
      <point x="746" y="242"/>
      <point x="751" y="353" type="curve" smooth="yes"/>
      <point x="756" y="475"/>
      <point x="888" y="494"/>
      <point x="1075" y="493" type="curve" smooth="yes"/>
      <point x="1199" y="492" type="line"/>
    </contour>
  </outline>
</glyph>
<glyph name="A" format="1">
  <advance width="1403"/>
  <unicode hex="0041"/>
  <outline>
    <contour>
      <point x="572" y="1499" type="line"/>
      <point x="162" y="235" type="line"/>
      <point x="30" y="235" type="line"/>
      <point x="30" y="3" type="line"/>
      <point x="238" y="3" type="line" smooth="yes"/>
      <point x="267" y="3"/>
      <point x="292" y="10"/>
      <point x="314" y="24" type="curve" smooth="yes"/>
      <point x="337" y="39"/>
      <point x="353" y="61"/>
      <point x="363" y="91" type="curve" smooth="yes"/>
      <point x="482" y="444" type="line"/>
      <point x="925" y="444" type="line"/>
      <point x="1048" y="90" type="line" smooth="yes"/>
      <point x="1058" y="62"/>
      <point x="1075" y="40"/>
      <point x="1098" y="25" type="curve" smooth="yes"/>
      <point x="1120" y="11"/>
      <point x="1144" y="3"/>
      <point x="1173" y="3" type="curve" smooth="yes"/>
      <point x="1373" y="3" type="line"/>
      <point x="1373" y="235" type="line"/>
      <point x="1250" y="235" type="line"/>
      <point x="839" y="1499" type="line"/>
    </contour>
    <contour>
      <point x="859" y="676" type="line"/>
      <point x="554" y="676" type="line"/>
      <point x="704" y="1159" type="line"/>
      <point x="704" y="1159" type="line"/>
    </contour>
    <contour>
      <point x="683" y="1577" type="move" name="top"/>
    </contour>
    <contour>
      <point x="1231" y="83" type="move" name="ogonek"/>
    </contour>
  </outline>
</glyph>
<glyph name="E" format="1">
  <advance width="1080"/>
  <unicode hex="0045"/>
  <outline>
    <contour>
      <point x="362" y="642" type="line"/>
      <point x="918" y="642" type="line"/>
      <point x="918" y="874" type="line"/>
      <point x="362" y="874" type="line"/>
    </contour>
    <contour>
      <point x="376" y="1264" type="line"/>
      <point x="786" y="1264" type="line"/>
      <point x="786" y="1143" type="line"/>
      <point x="1025" y="1143" type="line"/>
      <point x="1025" y="1381" type="line" smooth="yes"/>
      <point x="1025" y="1419"/>
      <point x="1012" y="1446"/>
      <point x="994" y="1464" type="curve" smooth="yes"/>
      <point x="976" y="1482"/>
      <point x="952" y="1494"/>
      <point x="913" y="1494" type="curve" smooth="yes"/>
      <point x="10" y="1494" type="line"/>
      <point x="10" y="1264" type="line"/>
      <point x="136" y="1264" type="line"/>
      <point x="136" y="-1" type="line"/>
      <point x="910" y="-1" type="line" smooth="yes"/>
      <point x="948" y="-1"/>
      <point x="974" y="11"/>
      <point x="993" y="30" type="curve" smooth="yes"/>
      <point x="1012" y="49"/>
      <point x="1025" y="76"/>
      <point x="1025" y="114" type="curve" smooth="yes"/>
      <point x="1025" y="352" type="line"/>
      <point x="786" y="352" type="line"/>
      <point x="786" y="231" type="line"/>
      <point x="376" y="231" type="line"/>
    </contour>
  </outline>
</glyph>
<glyph name="F" format="1">
  <advance width="1029"/>
  <unicode hex="0046"/>
  <outline>
    <contour>
      <point x="10" y="1494" type="line"/>
      <point x="10" y="1263" type="line"/>
      <point x="136" y="1263" type="line"/>
      <point x="136" y="-2" type="line"/>
      <point x="383" y="-2" type="line"/>
      <point x="383" y="642" type="line"/>
      <point x="891" y="642" type="line"/>
      <point x="891" y="873" type="line"/>
      <point x="382" y="873" type="line"/>
      <point x="382" y="1263" type="line"/>
      <point x="750" y="1263" type="line"/>
      <point x="750" y="1143" type="line"/>
      <point x="989" y="1143" type="line"/>
      <point x="989" y="1381" type="line" smooth="yes"/>
      <point x="989" y="1418"/>
      <point x="977" y="1445"/>
      <point x="959" y="1463" type="curve" smooth="yes"/>
      <point x="941" y="1481"/>
      <point x="914" y="1494"/>
      <point x="876" y="1494" type="curve" smooth="yes"/>
    </contour>
  </outline>
</glyph>
<glyph name="H" format="1">
  <advance width="1442"/>
  <unicode hex="0048"/>
  <outline>
    <contour>
      <point x="1134" y="1494" type="line" smooth="yes"/>
      <point x="1056" y="1494"/>
      <point x="1019" y="1458"/>
      <point x="1019" y="1381" type="curve" smooth="yes"/>
      <point x="1019" y="874" type="line"/>
      <point x="419" y="874" type="line"/>
      <point x="419" y="1381" type="line" smooth="yes"/>
      <point x="419" y="1459"/>
      <point x="384" y="1494"/>
      <point x="306" y="1494" type="curve" smooth="yes"/>
      <point x="55" y="1494" type="line"/>
      <point x="55" y="1263" type="line"/>
      <point x="172" y="1263" type="line"/>
      <point x="172" y="-1" type="line"/>
      <point x="420" y="-1" type="line"/>
      <point x="420" y="642" type="line"/>
      <point x="1020" y="642" type="line"/>
      <point x="1020" y="-1" type="line"/>
      <point x="1266" y="-1" type="line"/>
      <point x="1266" y="1263" type="line"/>
      <point x="1384" y="1263" type="line"/>
      <point x="1384" y="1494" type="line"/>
    </contour>
  </outline>
</glyph>
<glyph name="L" format="1">
  <advance width="954"/>
  <unicode hex="004C"/>
  <outline>
    <contour>
      <point x="10" y="1494" type="line"/>
      <point x="10" y="1263" type="line"/>
      <point x="136" y="1263" type="line"/>
      <point x="136" y="-1" type="line"/>
      <point x="816" y="-1" type="line" smooth="yes"/>
      <point x="893" y="-1"/>
      <point x="929" y="36"/>
      <point x="929" y="114" type="curve" smooth="yes"/>
      <point x="929" y="352" type="line"/>
      <point x="703" y="352" type="line"/>
      <point x="703" y="231" type="line"/>
      <point x="382" y="231" type="line"/>
      <point x="383" y="1494" type="line"/>
    </contour>
  </outline>
</glyph>
<glyph name="M" format="1">
  <advance width="1832"/>
  <unicode hex="004D"/>
  <outline>
    <contour>
      <point x="1362" y="1494" type="line" smooth="yes"/>
      <point x="1334" y="1494"/>
      <point x="1309" y="1487"/>
      <point x="1290" y="1474" type="curve" smooth="yes"/>
      <point x="1271" y="1461"/>
      <point x="1253" y="1440"/>
      <point x="1244" y="1411" type="curve" smooth="yes"/>
      <point x="928" y="593" type="line"/>
      <point x="635" y="1411" type="line" smooth="yes"/>
      <point x="625" y="1440"/>
      <point x="608" y="1461"/>
      <point x="589" y="1474" type="curve" smooth="yes"/>
      <point x="570" y="1487"/>
      <point x="545" y="1494"/>
      <point x="517" y="1494" type="curve" smooth="yes"/>
      <point x="314" y="1494" type="line"/>
      <point x="245" y="230" type="line"/>
      <point x="115" y="230" type="line"/>
      <point x="115" y="-1" type="line"/>
      <point x="363" y="-1" type="line" smooth="yes"/>
      <point x="400" y="-1"/>
      <point x="425" y="10"/>
      <point x="444" y="27" type="curve" smooth="yes"/>
      <point x="464" y="45"/>
      <point x="478" y="71"/>
      <point x="480" y="106" type="curve" smooth="yes"/>
      <point x="533" y="965" type="line"/>
      <point x="819" y="194" type="line"/>
      <point x="1039" y="194" type="line"/>
      <point x="1347" y="978" type="line"/>
      <point x="1403" y="106" type="line" smooth="yes"/>
      <point x="1405" y="71"/>
      <point x="1418" y="45"/>
      <point x="1438" y="27" type="curve" smooth="yes"/>
      <point x="1457" y="10"/>
      <point x="1484" y="-1"/>
      <point x="1519" y="-1" type="curve" smooth="yes"/>
      <point x="1767" y="-1" type="line"/>
      <point x="1766" y="230" type="line"/>
      <point x="1636" y="230" type="line"/>
      <point x="1557" y="1494" type="line"/>
    </contour>
  </outline>
</glyph>
<glyph name="Q" format="1">
  <advance width="1645"/>
  <unicode hex="0051"/>
  <outline>
    <contour>
      <point x="342" y="1527"/>
      <point x="0" y="1232"/>
      <point x="0" y="752" type="curve" smooth="yes"/>
      <point x="0" y="321"/>
      <point x="294" y="-20"/>
      <point x="776" y="-20" type="curve" smooth="yes"/>
      <point x="948" y="-20"/>
      <point x="1107" y="27"/>
      <point x="1235" y="112" type="curve"/>
      <point x="1393" y="-46" type="line"/>
      <point x="1558" y="119" type="line"/>
      <point x="1404" y="273" type="line"/>
      <point x="1498" y="398"/>
      <point x="1552" y="560"/>
      <point x="1552" y="752" type="curve" smooth="yes"/>
      <point x="1552" y="1185"/>
      <point x="1256" y="1527"/>
      <point x="776" y="1527" type="curve" smooth="yes"/>
    </contour>
    <contour>
      <point x="1074" y="1290"/>
      <point x="1302" y="1085"/>
      <point x="1302" y="753" type="curve" smooth="yes"/>
      <point x="1302" y="642"/>
      <point x="1275" y="539"/>
      <point x="1224" y="454" type="curve"/>
      <point x="1071" y="607" type="line"/>
      <point x="905" y="441" type="line"/>
      <point x="1058" y="288" type="line"/>
      <point x="980" y="244"/>
      <point x="885" y="217"/>
      <point x="775" y="217" type="curve" smooth="yes"/>
      <point x="476" y="217"/>
      <point x="250" y="420"/>
      <point x="250" y="753" type="curve" smooth="yes"/>
      <point x="250" y="1059"/>
      <point x="447" y="1290"/>
      <point x="775" y="1290" type="curve" smooth="yes"/>
    </contour>
  </outline>
</glyph>
<glyph name="T" format="1">
  <advance width="1084"/>
  <unicode hex="0054"/>
  <outline>
    <contour>
      <point x="115" y="1494" type="line" smooth="yes"/>
      <point x="37" y="1494"/>
      <point x="0" y="1457"/>
      <point x="0" y="1381" type="curve" smooth="yes"/>
      <point x="1" y="1143" type="line"/>
      <point x="238" y="1143" type="line"/>
      <point x="238" y="1263" type="line"/>
      <point x="419" y="1263" type="line"/>
      <point x="419" y="-1" type="line"/>
      <point x="665" y="-1" type="line"/>
      <point x="665" y="1263" type="line"/>
      <point x="846" y="1263" type="line"/>
      <point x="846" y="1143" type="line"/>
      <point x="1084" y="1143" type="line"/>
      <point x="1084" y="1381" type="line" smooth="yes"/>
      <point x="1084" y="1457"/>
      <point x="1047" y="1494"/>
      <point x="969" y="1494" type="curve" smooth="yes"/>
    </contour>
  </outline>
</glyph>
<glyph name="Y" format="1">
  <advance width="1248"/>
  <unicode hex="0059"/>
  <outline>
    <contour>
      <point x="1022" y="1494" type="line" smooth="yes"/>
      <point x="960" y="1494"/>
      <point x="925" y="1471"/>
      <point x="900" y="1417" type="curve" smooth="yes"/>
      <point x="632" y="813" type="line"/>
      <point x="347" y="1418" type="line" smooth="yes"/>
      <point x="321" y="1471"/>
      <point x="287" y="1494"/>
      <point x="227" y="1494" type="curve" smooth="yes"/>
      <point x="1" y="1494" type="line"/>
      <point x="1" y="1262" type="line"/>
      <point x="148" y="1262" type="line"/>
      <point x="511" y="539" type="line"/>
      <point x="511" y="-2" type="line"/>
      <point x="757" y="-2" type="line"/>
      <point x="757" y="542" type="line"/>
      <point x="1100" y="1263" type="line"/>
      <point x="1247" y="1263" type="line"/>
      <point x="1247" y="1494" type="line"/>
    </contour>
  </outline>
</glyph>
<glyph name="backslash" format="1">
  <advance width="758"/>
  <unicode hex="005C"/>
  <outline>
    <contour>
      <point x="26" y="1554" type="line"/>
      <point x="509" y="-72" type="line"/>
      <point x="729" y="-72" type="line"/>
      <point x="246" y="1554" type="line"/>
    </contour>
  </outline>
</glyph>
<glyph name="e" format="1">
  <advance width="1187"/>
  <unicode hex="0065"/>
  <outline>
    <contour>
      <point x="296" y="656" type="line"/>
      <point x="320" y="788"/>
      <point x="445" y="877"/>
      <point x="618" y="877" type="curve" smooth="yes"/>
      <point x="788" y="877"/>
      <point x="911" y="764"/>
      <point x="895" y="585" type="curve"/>
      <point x="1006" y="658" type="line"/>
      <point x="284" y="658" type="line"/>
      <point x="284" y="458" type="line"/>
      <point x="1139" y="458" type="line"/>
      <point x="1136" y="610" type="line" smooth="yes"/>
      <point x="1130" y="899"/>
      <point x="923" y="1104"/>
      <point x="618" y="1104" type="curve" smooth="yes"/>
      <point x="250" y="1104"/>
      <point x="51" y="876"/>
      <point x="51" y="550" type="curve" smooth="yes"/>
      <point x="51" y="210"/>
      <point x="255" y="-19"/>
      <point x="631" y="-19" type="curve" smooth="yes"/>
      <point x="719" y="-19"/>
      <point x="801" y="-3"/>
      <point x="880" y="30" type="curve" smooth="yes"/>
      <point x="953" y="61"/>
      <point x="1020" y="94"/>
      <point x="1129" y="155" type="curve"/>
      <point x="1024" y="355" type="line"/>
      <point x="924" y="293"/>
      <point x="887" y="276"/>
      <point x="812" y="244" type="curve" smooth="yes"/>
      <point x="750" y="218"/>
      <point x="689" y="203"/>
      <point x="629" y="203" type="curve" smooth="yes"/>
      <point x="453" y="203"/>
      <point x="332" y="300"/>
      <point x="294" y="461" type="curve"/>
    </contour>
  </outline>
</glyph>
<glyph name="p" format="1">
  <advance width="1232"/>
  <unicode hex="0070"/>
  <outline>
    <contour>
      <point x="55" y="860" type="line"/>
      <point x="172" y="860" type="line"/>
      <point x="172" y="-429" type="line"/>
      <point x="409" y="-429" type="line"/>
      <point x="409" y="96" type="line"/>
      <point x="489" y="4"/>
      <point x="614" y="-19"/>
      <point x="736" y="-19" type="curve" smooth="yes"/>
      <point x="1011" y="-19"/>
      <point x="1214" y="201"/>
      <point x="1214" y="548" type="curve" smooth="yes"/>
      <point x="1214" y="909"/>
      <point x="1002" y="1104"/>
      <point x="731" y="1104" type="curve" smooth="yes"/>
      <point x="536" y="1104"/>
      <point x="428" y="1027"/>
      <point x="345" y="889" type="curve"/>
      <point x="386" y="854" type="line"/>
      <point x="387" y="960" type="line"/>
      <point x="387" y="1065"/>
      <point x="354" y="1084"/>
      <point x="270" y="1084" type="curve" smooth="yes"/>
      <point x="55" y="1084" type="line"/>
    </contour>
    <contour>
      <point x="891" y="877"/>
      <point x="976" y="754"/>
      <point x="976" y="546" type="curve" smooth="yes"/>
      <point x="976" y="346"/>
      <point x="885" y="208"/>
      <point x="695" y="208" type="curve" smooth="yes"/>
      <point x="554" y="208"/>
      <point x="409" y="297"/>
      <point x="409" y="448" type="curve" smooth="yes"/>
      <point x="409" y="599" type="line" smooth="yes"/>
      <point x="409" y="761"/>
      <point x="544" y="877"/>
      <point x="690" y="877" type="curve" smooth="yes"/>
    </contour>
  </outline>
</glyph>
<glyph name="r" format="1">
  <advance width="820"/>
  <unicode hex="0072"/>
  <outline>
    <contour>
      <point x="55" y="859" type="line"/>
      <point x="172" y="859" type="line"/>
      <point x="172" y="-2" type="line"/>
      <point x="411" y="-2" type="line"/>
      <point x="411" y="555" type="line"/>
      <point x="416" y="748"/>
      <point x="523" y="860"/>
      <point x="796" y="860" type="curve"/>
      <point x="795" y="1086" type="line"/>
      <point x="589" y="1086"/>
      <point x="491" y="1038"/>
      <point x="398" y="935" type="curve"/>
      <point x="398" y="972" type="line" smooth="yes"/>
      <point x="398" y="1011"/>
      <point x="385" y="1039"/>
      <point x="365" y="1057" type="curve" smooth="yes"/>
      <point x="346" y="1074"/>
      <point x="320" y="1085"/>
      <point x="283" y="1085" type="curve" smooth="yes"/>
      <point x="55" y="1085" type="line"/>
    </contour>
  </outline>
</glyph>
<glyph name="z" format="1">
  <advance width="1023"/>
  <unicode hex="007A"/>
  <outline>
    <contour>
      <point x="194" y="1086" type="line" smooth="yes"/>
      <point x="118" y="1086"/>
      <point x="79" y="1048"/>
      <point x="79" y="971" type="curve" smooth="yes"/>
      <point x="79" y="751" type="line"/>
      <point x="316" y="751" type="line"/>
      <point x="316" y="863" type="line"/>
      <point x="614" y="863" type="line"/>
      <point x="50" y="165" type="line"/>
      <point x="50" y="-2" type="line"/>
      <point x="861" y="-2" type="line"/>
      <point x="938" y="-2"/>
      <point x="973" y="34"/>
      <point x="973" y="113" type="curve" smooth="yes"/>
      <point x="973" y="336" type="line"/>
      <point x="738" y="336" type="line"/>
      <point x="738" y="225" type="line"/>
      <point x="394" y="225" type="line"/>
      <point x="953" y="917" type="line"/>
      <point x="953" y="1086" type="line"/>
    </contour>
  </outline>
</glyph>
<glyph name="braceright" format="1">
  <advance width="627"/>
  <unicode hex="007D"/>
  <outline>
    <contour>
      <point x="8" y="1384" type="line"/>
      <point x="145" y="1384"/>
      <point x="177" y="1371"/>
      <point x="204" y="1341" type="curve" smooth="yes"/>
      <point x="236" y="1305"/>
      <point x="249" y="1244"/>
      <point x="249" y="1164" type="curve"/>
      <point x="229" y="874" type="line"/>
      <point x="229" y="804"/>
      <point x="234" y="754"/>
      <point x="279" y="739" type="curve"/>
      <point x="279" y="737" type="line"/>
      <point x="232" y="724"/>
      <point x="229" y="669"/>
      <point x="229" y="601" type="curve"/>
      <point x="249" y="313" type="line"/>
      <point x="248" y="231"/>
      <point x="235" y="171"/>
      <point x="204" y="136" type="curve" smooth="yes"/>
      <point x="173" y="102"/>
      <point x="131" y="90"/>
      <point x="8" y="92" type="curve"/>
      <point x="8" y="-123" type="line"/>
      <point x="212" y="-123"/>
      <point x="306" y="-84"/>
      <point x="366" y="-16" type="curve" smooth="yes"/>
      <point x="426" y="53"/>
      <point x="458" y="156"/>
      <point x="458" y="302" type="curve"/>
      <point x="453" y="397"/>
      <point x="448" y="493"/>
      <point x="443" y="588" type="curve"/>
      <point x="443" y="608"/>
      <point x="454" y="622"/>
      <point x="481" y="631" type="curve" smooth="yes"/>
      <point x="503" y="637"/>
      <point x="536" y="640"/>
      <point x="583" y="640" type="curve"/>
      <point x="583" y="833" type="line"/>
      <point x="535" y="833"/>
      <point x="500" y="836"/>
      <point x="476" y="845" type="curve" smooth="yes"/>
      <point x="453" y="852"/>
      <point x="442" y="864"/>
      <point x="443" y="882" type="curve" smooth="yes"/>
      <point x="444" y="910"/>
      <point x="457" y="1124"/>
      <point x="460" y="1175" type="curve"/>
      <point x="460" y="1319"/>
      <point x="428" y="1422"/>
      <point x="368" y="1491" type="curve" smooth="yes"/>
      <point x="303" y="1565"/>
      <point x="212" y="1598"/>
      <point x="8" y="1598" type="curve"/>
    </contour>
  </outline>
</glyph>
<glyph name="sterling" format="1">
  <advance width="1202"/>
  <unicode hex="00A3"/>
  <outline>
    <contour>
      <point x="348" y="1460"/>
      <point x="219" y="1295"/>
      <point x="219" y="986" type="curve" smooth="yes"/>
      <point x="219" y="765" type="line"/>
      <point x="45" y="765" type="line"/>
      <point x="45" y="554" type="line"/>
      <point x="219" y="554" type="line"/>
      <point x="219" y="294" type="line" smooth="yes"/>
      <point x="219" y="219"/>
      <point x="198" y="173"/>
      <point x="123" y="110" type="curve"/>
      <point x="123" y="-46" type="line"/>
      <point x="1137" y="-46" type="line"/>
      <point x="1137" y="289" type="line"/>
      <point x="916" y="289" type="line"/>
      <point x="916" y="169" type="line"/>
      <point x="434" y="168" type="line"/>
      <point x="444" y="194"/>
      <point x="449" y="237"/>
      <point x="449" y="311" type="curve" smooth="yes"/>
      <point x="449" y="552" type="line"/>
      <point x="828" y="552" type="line"/>
      <point x="828" y="763" type="line"/>
      <point x="449" y="763" type="line"/>
      <point x="449" y="984" type="line" smooth="yes"/>
      <point x="449" y="1156"/>
      <point x="514" y="1250"/>
      <point x="665" y="1250" type="curve" smooth="yes"/>
      <point x="794" y="1250"/>
      <point x="869" y="1180"/>
      <point x="919" y="980" type="curve"/>
      <point x="1134" y="1034" type="line"/>
      <point x="1066" y="1345"/>
      <point x="924" y="1460"/>
      <point x="667" y="1460" type="curve" smooth="yes"/>
    </contour>
  </outline>
</glyph>
<glyph name="currency" format="1">
  <advance width="1183"/>
  <unicode hex="00A4"/>
  <outline>
    <contour>
      <point x="-15" y="1145" type="line"/>
      <point x="207" y="920" type="line"/>
      <point x="167" y="853"/>
      <point x="144" y="778"/>
      <point x="144" y="693" type="curve" smooth="yes"/>
      <point x="144" y="609"/>
      <point x="166" y="532"/>
      <point x="208" y="465" type="curve"/>
      <point x="-15" y="242" type="line"/>
      <point x="140" y="88" type="line"/>
      <point x="363" y="310" type="line"/>
      <point x="433" y="268"/>
      <point x="507" y="246"/>
      <point x="591" y="246" type="curve" smooth="yes"/>
      <point x="676" y="246"/>
      <point x="751" y="269"/>
      <point x="819" y="309" type="curve"/>
      <point x="1042" y="88" type="line"/>
      <point x="1196" y="242" type="line"/>
      <point x="972" y="465" type="line"/>
      <point x="1014" y="533"/>
      <point x="1036" y="610"/>
      <point x="1036" y="691" type="curve" smooth="yes"/>
      <point x="1036" y="774"/>
      <point x="1016" y="851"/>
      <point x="973" y="919" type="curve"/>
      <point x="1197" y="1144" type="line"/>
      <point x="1043" y="1297" type="line"/>
      <point x="820" y="1074" type="line"/>
      <point x="752" y="1116"/>
      <point x="676" y="1138"/>
      <point x="592" y="1138" type="curve" smooth="yes"/>
      <point x="511" y="1138"/>
      <point x="430" y="1114"/>
      <point x="362" y="1075" type="curve"/>
      <point x="140" y="1298" type="line"/>
    </contour>
    <contour>
      <point x="709" y="917"/>
      <point x="814" y="812"/>
      <point x="814" y="691" type="curve" smooth="yes"/>
      <point x="814" y="570"/>
      <point x="710" y="468"/>
      <point x="590" y="468" type="curve" smooth="yes"/>
      <point x="465" y="468"/>
      <point x="366" y="566"/>
      <point x="366" y="692" type="curve" smooth="yes"/>
      <point x="366" y="822"/>
      <point x="473" y="917"/>
      <point x="589" y="917" type="curve" smooth="yes"/>
    </contour>
  </outline>
</glyph>
<glyph name="macron" format="1">
  <advance width="1087"/>
  <unicode hex="00AF"/>
  <outline>
    <contour>
      <point x="195" y="1390" type="line"/>
      <point x="195" y="1178" type="line"/>
      <point x="971" y="1178" type="line"/>
      <point x="971" y="1390" type="line"/>
    </contour>
    <contour>
      <point x="573" y="1084" type="move" name="_top"/>
    </contour>
  </outline>
</glyph>
<glyph name="onehalf" format="1">
  <advance width="1572"/>
  <unicode hex="00BD"/>
  <outline>
    <contour>
      <point x="832" y="1618" type="line"/>
      <point x="345" y="-126" type="line"/>
      <point x="577" y="-126" type="line"/>
      <point x="1065" y="1618" type="line"/>
    </contour>
    <contour>
      <point x="280" y="1521" type="line"/>
      <point x="22" y="1445" type="line"/>
      <point x="42" y="1250" type="line"/>
      <point x="206" y="1285" type="line"/>
      <point x="206" y="676" type="line"/>
      <point x="440" y="676" type="line"/>
      <point x="440" y="1521" type="line"/>
    </contour>
    <contour>
      <point x="1004" y="857"/>
      <point x="903" y="769"/>
      <point x="903" y="516" type="curve"/>
      <point x="1130" y="516" type="line"/>
      <point x="1130" y="625"/>
      <point x="1139" y="647"/>
      <point x="1189" y="653" type="curve"/>
      <point x="1207" y="654" type="line" smooth="yes"/>
      <point x="1253" y="654"/>
      <point x="1278" y="626"/>
      <point x="1278" y="595" type="curve" smooth="yes"/>
      <point x="1278" y="558"/>
      <point x="1260" y="527"/>
      <point x="1225" y="492" type="curve" smooth="yes"/>
      <point x="1211" y="478"/>
      <point x="1194" y="462"/>
      <point x="1174" y="441" type="curve" smooth="yes"/>
      <point x="894" y="162" type="line"/>
      <point x="894" y="-2" type="line"/>
      <point x="1523" y="-2" type="line"/>
      <point x="1523" y="200" type="line"/>
      <point x="1242" y="200" type="line"/>
      <point x="1337" y="295" type="line" smooth="yes"/>
      <point x="1457" y="419"/>
      <point x="1512" y="493"/>
      <point x="1512" y="594" type="curve" smooth="yes"/>
      <point x="1512" y="762"/>
      <point x="1404" y="857"/>
      <point x="1206" y="857" type="curve" smooth="yes"/>
    </contour>
  </outline>
</glyph>
<glyph name="germandbls" format="1">
  <advance width="1267"/>
  <unicode hex="00DF"/>
  <outline>
    <contour>
      <point x="364" y="1458"/>
      <point x="181" y="1274"/>
      <point x="181" y="914" type="curve" smooth="yes"/>
      <point x="181" y="155" type="line"/>
      <point x="61.0001" y="153" type="line"/>
      <point x="61.0001" y="-51" type="line"/>
      <point x="315" y="-51" type="line" smooth="yes"/>
      <point x="384" y="-51"/>
      <point x="428" y="-13"/>
      <point x="428" y="56" type="curve" smooth="yes"/>
      <point x="428" y="590" type="line"/>
      <point x="724" y="593" type="line" smooth="yes"/>
      <point x="906" y="593"/>
      <point x="997" y="507"/>
      <point x="997" y="360" type="curve" smooth="yes"/>
      <point x="997" y="220"/>
      <point x="938" y="140"/>
      <point x="826" y="140" type="curve" smooth="yes"/>
      <point x="703" y="140"/>
      <point x="659" y="188"/>
      <point x="594" y="243" type="curve"/>
      <point x="468" y="53" type="line"/>
      <point x="573" y="-17"/>
      <point x="629" y="-65"/>
      <point x="814" y="-74" type="curve" smooth="yes"/>
      <point x="1097" y="-89"/>
      <point x="1244" y="84"/>
      <point x="1244" y="345" type="curve" smooth="yes"/>
      <point x="1244" y="555.72"/>
      <point x="1145.03" y="692.829"/>
      <point x="1013.67" y="745.972" type="curve"/>
      <point x="1092.53" y="811.387"/>
      <point x="1131" y="913.312"/>
      <point x="1131" y="1036" type="curve" smooth="yes"/>
      <point x="1131" y="1296"/>
      <point x="956" y="1458"/>
      <point x="657" y="1458" type="curve" smooth="yes"/>
    </contour>
    <contour>
      <point x="805" y="1247"/>
      <point x="892" y="1169"/>
      <point x="892" y="1025" type="curve" smooth="yes"/>
      <point x="892" y="883"/>
      <point x="808" y="821"/>
      <point x="670" y="821" type="curve" smooth="yes"/>
      <point x="429" y="821" type="line"/>
      <point x="428" y="918" type="line"/>
      <point x="428" y="1117"/>
      <point x="485" y="1247"/>
      <point x="662" y="1247" type="curve" smooth="yes"/>
    </contour>
  </outline>
</glyph>
<glyph name="divide" format="1">
  <advance width="1107"/>
  <unicode hex="00F7"/>
  <outline>
    <contour>
      <point x="133" y="798" type="line"/>
      <point x="133" y="582" type="line"/>
      <point x="974" y="582" type="line"/>
      <point x="974" y="798" type="line"/>
    </contour>
    <contour>
      <point x="473" y="501"/>
      <point x="402" y="431"/>
      <point x="402" y="347" type="curve" smooth="yes"/>
      <point x="402" y="267"/>
      <point x="473" y="197"/>
      <point x="554" y="197" type="curve" smooth="yes"/>
      <point x="635" y="197"/>
      <point x="706" y="268"/>
      <point x="706" y="349" type="curve" smooth="yes"/>
      <point x="706" y="431"/>
      <point x="635" y="501"/>
      <point x="554" y="501" type="curve" smooth="yes"/>
    </contour>
    <contour>
      <point x="473" y="1185"/>
      <point x="402" y="1116"/>
      <point x="402" y="1032" type="curve" smooth="yes"/>
      <point x="402" y="951"/>
      <point x="473" y="882"/>
      <point x="554" y="882" type="curve" smooth="yes"/>
      <point x="635" y="882"/>
      <point x="706" y="951"/>
      <point x="706" y="1032" type="curve" smooth="yes"/>
      <point x="706" y="1033" type="line" smooth="yes"/>
      <point x="706" y="1115"/>
      <point x="635" y="1185"/>
      <point x="554" y="1185" type="curve" smooth="yes"/>
    </contour>
  </outline>
</glyph>
<glyph name="oslash" format="1">
  <advance width="1354"/>
  <unicode hex="00F8"/>
  <outline>
    <contour>
      <point x="936" y="1108" type="line"/>
      <point x="860" y="1138"/>
      <point x="773" y="1155"/>
      <point x="677" y="1155" type="curve" smooth="yes"/>
      <point x="330" y="1155"/>
      <point x="58" y="925"/>
      <point x="58" y="541" type="curve" smooth="yes"/>
      <point x="58" y="363"/>
      <point x="121" y="205"/>
      <point x="235" y="95" type="curve"/>
      <point x="122" y="-68" type="line"/>
      <point x="319" y="-203" type="line"/>
      <point x="438" y="-31" type="line"/>
      <point x="509" y="-56"/>
      <point x="589" y="-70"/>
      <point x="677" y="-70" type="curve" smooth="yes"/>
      <point x="1024" y="-70"/>
      <point x="1296" y="158"/>
      <point x="1296" y="541" type="curve" smooth="yes"/>
      <point x="1296" y="713"/>
      <point x="1239" y="865"/>
      <point x="1134" y="975" type="curve"/>
      <point x="1274" y="1177" type="line"/>
      <point x="1077" y="1312" type="line"/>
    </contour>
    <contour>
      <point x="720" y="928"/>
      <point x="761" y="922"/>
      <point x="799" y="911" type="curve"/>
      <point x="374" y="296" type="line"/>
      <point x="326" y="359"/>
      <point x="298" y="441"/>
      <point x="298" y="541" type="curve" smooth="yes"/>
      <point x="298" y="765"/>
      <point x="441" y="928"/>
      <point x="677" y="928" type="curve" smooth="yes"/>
    </contour>
    <contour>
      <point x="1033" y="709"/>
      <point x="1056" y="632"/>
      <point x="1056" y="541" type="curve" smooth="yes"/>
      <point x="1056" y="322"/>
      <point x="913" y="157"/>
      <point x="677" y="157" type="curve" smooth="yes"/>
      <point x="642" y="157"/>
      <point x="608" y="161"/>
      <point x="576" y="168" type="curve"/>
      <point x="992" y="770" type="line"/>
    </contour>
  </outline>
</glyph>
<glyph name="OE" format="1">
  <advance width="1803"/>
  <unicode hex="0152"/>
  <outline>
    <contour>
      <point x="327" y="1464"/>
      <point x="-10" y="1172"/>
      <point x="-10" y="697" type="curve" smooth="yes"/>
      <point x="-10" y="271"/>
      <point x="280" y="-66"/>
      <point x="755" y="-66" type="curve" smooth="yes"/>
      <point x="818" y="-66"/>
      <point x="879" y="-59"/>
      <point x="936" y="-47" type="curve"/>
      <point x="1654" y="-47" type="line" smooth="yes"/>
      <point x="1689" y="-47"/>
      <point x="1714" y="-36"/>
      <point x="1732" y="-19" type="curve" smooth="yes"/>
      <point x="1749" y="-1"/>
      <point x="1760" y="24"/>
      <point x="1760" y="59" type="curve" smooth="yes"/>
      <point x="1760" y="289" type="line"/>
      <point x="1538" y="289" type="line"/>
      <point x="1538" y="169" type="line"/>
      <point x="1115" y="169" type="line"/>
      <point x="1115" y="596" type="line"/>
      <point x="1654" y="596" type="line"/>
      <point x="1654" y="811" type="line"/>
      <point x="1115" y="811" type="line"/>
      <point x="1115" y="1218" type="line"/>
      <point x="1538" y="1218" type="line"/>
      <point x="1538" y="1097" type="line"/>
      <point x="1760" y="1097" type="line"/>
      <point x="1760" y="1327" type="line" smooth="yes"/>
      <point x="1760" y="1362"/>
      <point x="1749" y="1387"/>
      <point x="1733" y="1404" type="curve" smooth="yes"/>
      <point x="1716" y="1420"/>
      <point x="1693" y="1432"/>
      <point x="1657" y="1432" type="curve" smooth="yes"/>
      <point x="995" y="1432" type="line"/>
      <point x="921" y="1453"/>
      <point x="841" y="1464"/>
      <point x="755" y="1464" type="curve" smooth="yes"/>
    </contour>
    <contour>
      <point x="802" y="1244"/>
      <point x="848" y="1239"/>
      <point x="892" y="1229" type="curve"/>
      <point x="892" y="169" type="line"/>
      <point x="849" y="160"/>
      <point x="803" y="155"/>
      <point x="754" y="155" type="curve" smooth="yes"/>
      <point x="452" y="155"/>
      <point x="223" y="360"/>
      <point x="223" y="698" type="curve" smooth="yes"/>
      <point x="223" y="1009"/>
      <point x="422" y="1244"/>
      <point x="754" y="1244" type="curve" smooth="yes"/>
    </contour>
  </outline>
</glyph>
<glyph name="circumflex" format="1">
  <advance width="760"/>
  <unicode hex="02C6"/>
  <outline>
    <contour>
      <point x="594" y="1137" type="line"/>
      <point x="717" y="1263" type="line"/>
      <point x="441" y="1583" type="line"/>
      <point x="318" y="1583" type="line"/>
      <point x="44" y="1263" type="line"/>
      <point x="166" y="1136" type="line"/>
      <point x="380" y="1325" type="line"/>
    </contour>
    <contour>
      <point x="363" y="1084" type="move" name="_top"/>
    </contour>
  </outline>
</glyph>
<glyph name="dotaccent" format="1">
  <advance width="554"/>
  <unicode hex="02D9"/>
  <outline>
    <contour>
      <point x="199" y="1465"/>
      <point x="133" y="1400"/>
      <point x="133" y="1319" type="curve" smooth="yes"/>
      <point x="133" y="1243"/>
      <point x="198" y="1178"/>
      <point x="274" y="1178" type="curve" smooth="yes"/>
      <point x="355" y="1178"/>
      <point x="420" y="1244"/>
      <point x="420" y="1319" type="curve" smooth="yes"/>
      <point x="420" y="1398"/>
      <point x="354" y="1465"/>
      <point x="274" y="1465" type="curve" smooth="yes"/>
    </contour>
  </outline>
</glyph>
<glyph name="ring" format="1">
  <advance width="724"/>
  <unicode hex="02DA"/>
  <outline>
    <contour>
      <point x="199" y="1682"/>
      <point x="104" y="1587"/>
      <point x="104" y="1433" type="curve"/>
      <point x="104" y="1276"/>
      <point x="203" y="1179"/>
      <point x="364" y="1178" type="curve" smooth="yes"/>
      <point x="523" y="1177"/>
      <point x="621" y="1271"/>
      <point x="621" y="1427" type="curve" smooth="yes"/>
      <point x="621" y="1585"/>
      <point x="520" y="1682"/>
      <point x="356" y="1682" type="curve" smooth="yes"/>
    </contour>
    <contour>
      <point x="393" y="1497"/>
      <point x="414" y="1470"/>
      <point x="414" y="1424" type="curve" smooth="yes"/>
      <point x="414" y="1383"/>
      <point x="394" y="1358"/>
      <point x="362" y="1358" type="curve" smooth="yes"/>
      <point x="329" y="1358"/>
      <point x="308" y="1384"/>
      <point x="308" y="1429" type="curve" smooth="yes"/>
      <point x="308" y="1471"/>
      <point x="327" y="1497"/>
      <point x="357" y="1497" type="curve" smooth="yes"/>
    </contour>
    <contour>
      <point x="353" y="1084" type="move" name="_top"/>
    </contour>
  </outline>
</glyph>
<glyph name="hungarumlaut" format="1">
  <advance width="932"/>
  <unicode hex="02DD"/>
  <outline>
    <contour>
      <point x="458" y="1103" type="line"/>
      <point x="814" y="1490" type="line"/>
      <point x="623" y="1646" type="line"/>
      <point x="306" y="1220" type="line"/>
    </contour>
    <contour>
      <point x="108" y="1103" type="line"/>
      <point x="463" y="1490" type="line"/>
      <point x="272" y="1646" type="line"/>
      <point x="-44" y="1220" type="line"/>
    </contour>
  </outline>
</glyph>
<glyph name="quotedblleft" format="1">
  <advance width="751"/>
  <unicode hex="201C"/>
  <outline>
    <contour>
      <point x="573" y="958"/>
      <point x="647" y="999"/>
      <point x="647" y="1108" type="curve" smooth="yes"/>
      <point x="647" y="1184"/>
      <point x="607" y="1216"/>
      <point x="607" y="1263" type="curve" smooth="yes"/>
      <point x="607" y="1302"/>
      <point x="632" y="1324"/>
      <point x="716" y="1399" type="curve"/>
      <point x="606" y="1515" type="line"/>
      <point x="511" y="1443"/>
      <point x="471" y="1409"/>
      <point x="419" y="1333" type="curve" smooth="yes"/>
      <point x="363" y="1250"/>
      <point x="347" y="1185"/>
      <point x="347" y="1129" type="curve" smooth="yes"/>
      <point x="347" y="983"/>
      <point x="440" y="958"/>
      <point x="496" y="958" type="curve" smooth="yes"/>
    </contour>
    <contour>
      <point x="257" y="958"/>
      <point x="331" y="996"/>
      <point x="331" y="1108" type="curve" smooth="yes"/>
      <point x="331" y="1184"/>
      <point x="290" y="1216"/>
      <point x="290" y="1263" type="curve" smooth="yes"/>
      <point x="290" y="1302"/>
      <point x="316" y="1324"/>
      <point x="399" y="1399" type="curve"/>
      <point x="289" y="1515" type="line"/>
      <point x="194" y="1443"/>
      <point x="155" y="1409"/>
      <point x="103" y="1333" type="curve" smooth="yes"/>
      <point x="46" y="1250"/>
      <point x="31" y="1185"/>
      <point x="31" y="1129" type="curve" smooth="yes"/>
      <point x="31" y="983"/>
      <point x="123" y="958"/>
      <point x="180" y="958" type="curve" smooth="yes"/>
    </contour>
  </outline>
</glyph>
<glyph name="guilsinglright" format="1">
  <advance width="508"/>
  <unicode hex="203A"/>
  <outline>
    <contour>
      <point x="156" y="211" type="line"/>
      <point x="447" y="547" type="line"/>
      <point x="447" y="670" type="line"/>
      <point x="160" y="1006" type="line"/>
      <point x="-6" y="892" type="line"/>
      <point x="206" y="610" type="line"/>
      <point x="-7" y="363" type="line"/>
    </contour>
  </outline>
</glyph>
<glyph name="Euro" format="1">
  <advance width="1178"/>
  <unicode hex="20AC"/>
  <outline>
    <contour>
      <point x="481" y="1457"/>
      <point x="352" y="1404"/>
      <point x="256" y="1298" type="curve" smooth="yes"/>
      <point x="169" y="1205"/>
      <point x="113" y="1076"/>
      <point x="85" y="911" type="curve"/>
      <point x="-48" y="911" type="line"/>
      <point x="-48" y="712" type="line"/>
      <point x="68" y="712" type="line"/>
      <point x="68" y="707"/>
      <point x="68" y="702"/>
      <point x="68" y="696" type="curve"/>
      <point x="68" y="690"/>
      <point x="68" y="683"/>
      <point x="68" y="679" type="curve"/>
      <point x="-48" y="679" type="line"/>
      <point x="-48" y="479" type="line"/>
      <point x="88" y="479" type="line"/>
      <point x="99" y="418"/>
      <point x="115" y="357"/>
      <point x="136" y="295" type="curve" smooth="yes"/>
      <point x="163" y="219"/>
      <point x="199" y="153"/>
      <point x="244" y="100" type="curve" smooth="yes"/>
      <point x="289" y="46"/>
      <point x="344" y="3"/>
      <point x="410" y="-29" type="curve" smooth="yes"/>
      <point x="475" y="-60"/>
      <point x="552" y="-77"/>
      <point x="643" y="-77" type="curve" smooth="yes"/>
      <point x="764" y="-77"/>
      <point x="864" y="-46"/>
      <point x="943" y="13" type="curve" smooth="yes"/>
      <point x="1026" y="76"/>
      <point x="1084" y="151"/>
      <point x="1181" y="335" type="curve"/>
      <point x="960" y="394" type="line"/>
      <point x="895" y="279"/>
      <point x="851" y="222"/>
      <point x="803" y="184" type="curve" smooth="yes"/>
      <point x="761" y="151"/>
      <point x="707" y="134"/>
      <point x="644" y="134" type="curve" smooth="yes"/>
      <point x="560" y="134"/>
      <point x="493" y="166"/>
      <point x="442" y="231" type="curve" smooth="yes"/>
      <point x="394" y="293"/>
      <point x="360" y="375"/>
      <point x="339" y="481" type="curve"/>
      <point x="864" y="481" type="line"/>
      <point x="864" y="681" type="line"/>
      <point x="316" y="681" type="line"/>
      <point x="315" y="685"/>
      <point x="315" y="692"/>
      <point x="315" y="699" type="curve" smooth="yes"/>
      <point x="315" y="704"/>
      <point x="315" y="709"/>
      <point x="316" y="714" type="curve"/>
      <point x="864" y="714" type="line"/>
      <point x="864" y="913" type="line"/>
      <point x="332" y="913" type="line"/>
      <point x="352" y="1016"/>
      <point x="385" y="1097"/>
      <point x="433" y="1155" type="curve" smooth="yes"/>
      <point x="485" y="1218"/>
      <point x="557" y="1248"/>
      <point x="644" y="1248" type="curve" smooth="yes"/>
      <point x="701" y="1248"/>
      <point x="759" y="1240"/>
      <point x="817" y="1223" type="curve" smooth="yes"/>
      <point x="886" y="1204"/>
      <point x="925" y="1186"/>
      <point x="1041" y="1121" type="curve"/>
      <point x="1129" y="1324" type="line"/>
      <point x="1012" y="1383"/>
      <point x="942" y="1410"/>
      <point x="866" y="1428" type="curve" smooth="yes"/>
      <point x="792" y="1446"/>
      <point x="718" y="1457"/>
      <point x="644" y="1457" type="curve" smooth="yes"/>
    </contour>
  </outline>
</glyph>
<glyph name=".notdef" format="1">
  <advance width="988"/>
  <outline>
    <contour>
      <point x="-47" y="1477" type="line"/>
      <point x="-47" y="-1" type="line"/>
      <point x="1035" y="-1" type="line"/>
      <point x="1035" y="1477" type="line"/>
    </contour>
    <contour>
      <point x="742" y="193" type="line"/>
      <point x="246" y="193" type="line"/>
      <point x="494" y="565" type="line"/>
    </contour>
    <contour>
      <point x="378" y="738" type="line"/>
      <point x="146" y="390" type="line"/>
      <point x="146" y="1086" type="line"/>
    </contour>
    <contour>
      <point x="842" y="389" type="line"/>
      <point x="609" y="738" type="line"/>
      <point x="842" y="1087" type="line"/>
    </contour>
    <contour>
      <point x="494" y="911" type="line"/>
      <point x="246" y="1283" type="line"/>
      <point x="742" y="1283" type="line"/>
    </contour>
  </outline>
</glyph>
<glyph name="glyph00228" format="1">
  <advance width="672"/>
  <outline>
    <contour>
      <point x="27" y="514" type="line"/>
      <point x="645" y="762" type="line"/>
      <point x="645" y="1013" type="line"/>
      <point x="27" y="765" type="line"/>
    </contour>
  </outline>
</glyph>
